<svg width="24" height="24" viewBox="0 0 24 24" fill="none" xmlns="http://www.w3.org/2000/svg">
<path d="M9.5 4.49937C9.5 5.87962 10.62 7.00037 12 7.00037C13.38 7.00037 14.5 5.87962 14.5 4.49937C14.5 3.11934 13.3803 2.00037 12 2.00037C10.6197 2.00037 9.5 3.11934 9.5 4.49937ZM12 3.00037C12.8281 3.00037 13.5 3.67178 13.5 4.49937C13.5 5.32749 12.8276 6.00037 12 6.00037C11.1724 6.00037 10.5 5.32749 10.5 4.49937C10.5 3.67178 11.1719 3.00037 12 3.00037ZM9.5 11.9965C9.5 13.3766 10.6199 14.4965 12 14.4965C13.3808 14.4965 14.5 13.3769 14.5 11.9965C14.5 10.616 13.3808 9.49647 12 9.49647C10.6199 9.49647 9.5 10.6163 9.5 11.9965ZM12 10.4965C12.8285 10.4965 13.5 11.1682 13.5 11.9965C13.5 12.8247 12.8285 13.4965 12 13.4965C11.1721 13.4965 10.5 12.8243 10.5 11.9965C10.5 11.1686 11.1721 10.4965 12 10.4965ZM9.5 19.5004C9.5 20.8805 10.6199 22.0004 12 22.0004C13.3801 22.0004 14.5 20.8805 14.5 19.5004C14.5 18.1202 13.3801 17.0004 12 17.0004C10.6199 17.0004 9.5 18.1202 9.5 19.5004ZM10.5 19.5004C10.5 18.6725 11.1721 18.0004 12 18.0004C12.8279 18.0004 13.5 18.6725 13.5 19.5004C13.5 20.3282 12.8279 21.0004 12 21.0004C11.1721 21.0004 10.5 20.3282 10.5 19.5004Z" fill="#444444"/>
</svg>