<svg width="48" height="32" viewBox="0 0 48 32" fill="none" xmlns="http://www.w3.org/2000/svg">
<path d="M31.9928 5.08818C31.8928 3.73617 30.7612 2.66663 29.3841 2.66663H18.6159L18.4209 2.67382C17.0689 2.77389 16 3.90603 16 5.28316V26.7168L16.0072 26.9117C16.1072 28.2637 17.2388 29.3333 18.6159 29.3333H29.3841L29.5791 29.3261C30.9311 29.226 32 28.0939 32 26.7168V5.28316L31.9928 5.08818ZM18.6159 3.99996H29.3841L29.5334 4.00861C30.1704 4.08285 30.6667 4.62603 30.6667 5.28316V26.7168L30.658 26.8662C30.5838 27.5037 30.0406 28 29.3841 28H18.6159L18.4666 27.9913C17.8296 27.9171 17.3333 27.3739 17.3333 26.7168V5.28316L17.342 5.1337C17.4162 4.4962 17.9594 3.99996 18.6159 3.99996ZM24.6667 25.3333C25.0352 25.3333 25.3333 25.6315 25.3333 26C25.3333 26.3275 25.0977 26.5995 24.7866 26.6559L24.6667 26.6666H23.3333C22.9648 26.6666 22.6667 26.3684 22.6667 26C22.6667 25.6724 22.9023 25.4004 23.2134 25.344L23.3333 25.3333H24.6667ZM26.6667 5.99996C26.6667 5.63147 26.3685 5.33329 26 5.33329H22L21.8801 5.34402C21.5689 5.40042 21.3333 5.67241 21.3333 5.99996C21.3333 6.36845 21.6315 6.66663 22 6.66663H26L26.1199 6.65589C26.4311 6.5995 26.6667 6.32751 26.6667 5.99996Z" fill="#444444"/>
</svg>