<svg width="48" height="36" viewBox="0 0 48 36" fill="none" xmlns="http://www.w3.org/2000/svg">
<path d="M33.3226 7.88013C33.2662 7.56897 32.9942 7.33337 32.6667 7.33337H11.3333L11.2134 7.34411C10.9023 7.4005 10.6667 7.67249 10.6667 8.00004V22.6667L10.6774 22.7866C10.7338 23.0978 11.0058 23.3334 11.3333 23.3334H14.6667V26.6667L14.6774 26.7866C14.7338 27.0978 15.0058 27.3334 15.3333 27.3334H36.6667L36.7866 27.3226C37.0977 27.2662 37.3333 26.9943 37.3333 26.6667V12L37.3226 11.8801C37.2662 11.569 36.9942 11.3334 36.6667 11.3334H33.3333V8.00004L33.3226 7.88013ZM19.9326 12.6667H32.0674L32.111 12.9189C32.4968 14.8338 34.0489 16.3165 36 16.5993V22.0674L35.7478 22.1111C33.8329 22.4968 32.3503 24.049 32.0674 26H19.9326L19.889 25.7479C19.5032 23.833 17.9511 22.3503 16 22.0674V16.5993L16.2522 16.5557C18.1671 16.1699 19.6498 14.6178 19.9326 12.6667ZM16 23.4008L16.2272 23.4556C17.4226 23.7887 18.3491 24.7726 18.5992 26H16V23.4008ZM33.4555 25.7729C33.7886 24.5775 34.7726 23.651 36 23.4008V26H33.4008L33.4555 25.7729ZM25.9707 13.612C26.2983 13.612 26.5702 13.8476 26.6266 14.1588L26.6374 14.2787V14.9052C27.0101 14.9754 27.3533 15.0819 27.6423 15.191L27.9616 15.321L28.2196 15.4405L28.471 15.5719L28.5345 15.6088C28.8483 15.8002 28.9473 16.2084 28.7572 16.5228C28.587 16.8035 28.2446 16.9113 27.9497 16.8001L27.6423 16.641L27.4188 16.5356C27.0316 16.3643 26.4259 16.1517 25.804 16.1517C25.0625 16.1517 24.2747 16.4883 24.2747 17.1114C24.2747 17.6874 24.8135 18.0518 25.6863 18.4365L26.1496 18.6316L26.7963 18.8917C26.8626 18.9188 26.929 18.9464 26.9951 18.9745L27.3881 19.1496C28.3566 19.6065 29.1901 20.2229 29.1901 21.3581C29.1901 22.3512 28.5652 23.3957 26.9077 23.6875L26.6374 23.7272V24.3438C26.6374 24.7123 26.3392 25.0105 25.9707 25.0105C25.6432 25.0105 25.3712 24.7749 25.3148 24.4637L25.304 24.3438V23.7383C24.2688 23.6264 23.606 23.2615 23.2653 23.0155L23.111 22.8953C23.0905 22.8779 23.0726 22.8621 23.0573 22.8482L22.9954 22.7885C22.7402 22.5222 22.7494 22.1003 23.0156 21.8457C23.2506 21.6189 23.6111 21.6014 23.867 21.7864L23.9955 21.8979L24.098 21.9729C24.3467 22.1397 24.9353 22.4408 25.9427 22.4408C26.0268 22.4408 26.1176 22.4388 26.2124 22.4339L26.5058 22.4088C27.1555 22.3302 27.8568 22.0785 27.8568 21.3581C27.8568 20.9039 27.3626 20.5889 26.5619 20.2408L26.1369 20.0631L25.3535 19.7459L24.9792 19.5813C23.9234 19.0935 22.9414 18.4078 22.9414 17.1114C22.9414 15.9873 23.8058 15.1294 25.0758 14.8907L25.304 14.8551V14.2787C25.304 13.9102 25.6022 13.612 25.9707 13.612ZM12 8.66671H32V11.3334H15.3333L15.2134 11.3441C14.9023 11.4005 14.6667 11.6725 14.6667 12V22H12V8.66671ZM18.5992 12.6667L18.5445 12.8939C18.2114 14.0893 17.2274 15.0158 16 15.2659V12.6667H18.5992ZM33.4008 12.6667H36V15.2659L35.7728 15.2112C34.5774 14.8781 33.651 13.8941 33.4008 12.6667Z" fill="#444444"/>
</svg>