<svg width="48" height="36" viewBox="0 0 48 36" fill="none" xmlns="http://www.w3.org/2000/svg">
<path fill-rule="evenodd" clip-rule="evenodd" d="M29.8208 8.17639C35.0056 8.17639 39.2088 12.4689 39.2088 17.7639C39.2088 23.0589 35.0056 27.3513 29.8208 27.3513C27.497 27.3513 25.3704 26.4891 23.731 25.0608C22.0921 26.4891 19.9655 27.3513 17.6417 27.3513C12.4569 27.3513 8.25372 23.0589 8.25372 17.7639C8.25372 12.4689 12.4569 8.17639 17.6417 8.17639C19.9655 8.17639 22.0921 9.03862 23.7315 10.4669C25.3704 9.03862 27.497 8.17639 29.8208 8.17639Z" fill="#FF5E00"/>
<path fill-rule="evenodd" clip-rule="evenodd" d="M17.6417 8.17639C19.9655 8.17639 22.0921 9.03862 23.7315 10.4669C21.7126 12.2254 20.4328 14.842 20.4328 17.7639C20.4328 20.6857 21.7126 23.3023 23.731 25.0608C22.0921 26.4891 19.9655 27.3513 17.6417 27.3513C12.4569 27.3513 8.25372 23.0589 8.25372 17.7639C8.25372 12.4689 12.4569 8.17639 17.6417 8.17639Z" fill="#ED0006"/>
<path fill-rule="evenodd" clip-rule="evenodd" d="M29.8208 8.17639C35.0056 8.17639 39.2088 12.4689 39.2088 17.7639C39.2088 23.0589 35.0056 27.3513 29.8208 27.3513C27.497 27.3513 25.3704 26.4891 23.731 25.0608C25.7499 23.3023 27.0297 20.6857 27.0297 17.7639C27.0297 14.842 25.7499 12.2254 23.7315 10.4669C25.3704 9.03862 27.497 8.17639 29.8208 8.17639Z" fill="#F9A000"/>
</svg>