<svg width="48" height="32" viewBox="0 0 48 32" fill="none" xmlns="http://www.w3.org/2000/svg">
<path d="M20.6667 2.66663C21.7712 2.66663 22.6667 3.56146 22.6667 4.66663V12.6666C22.6667 13.7718 21.7712 14.6666 20.6667 14.6666H12.6667C11.5621 14.6666 10.6667 13.7718 10.6667 12.6666V4.66663C10.6667 3.56146 11.5621 2.66663 12.6667 2.66663H20.6667ZM20.6667 17.3333C21.7712 17.3333 22.6667 18.2281 22.6667 19.3333V27.3333C22.6667 28.4385 21.7712 29.3333 20.6667 29.3333H12.6667C11.5621 29.3333 10.6667 28.4385 10.6667 27.3333V19.3333C10.6667 18.2281 11.5621 17.3333 12.6667 17.3333H20.6667ZM29.3333 26C29.3333 25.632 29.0347 25.3333 28.6667 25.3333H26C25.632 25.3333 25.3333 25.632 25.3333 26V28.6666C25.3333 29.0333 25.632 29.3333 26 29.3333H28.6667C29.0347 29.3333 29.3333 29.0333 29.3333 28.6666V26ZM37.3365 26C37.3365 25.632 37.0379 25.3333 36.6699 25.3333H34.0032C33.6352 25.3333 33.3365 25.632 33.3365 26V28.6666C33.3365 29.0333 33.6352 29.3333 34.0032 29.3333H36.6699C37.0379 29.3333 37.3365 29.0333 37.3365 28.6666V26ZM12.6667 18.6666C12.2983 18.6666 12 18.9647 12 19.3333V27.3333C12 27.7019 12.2983 28 12.6667 28H20.6667C21.035 28 21.3333 27.7019 21.3333 27.3333V19.3333C21.3333 18.9647 21.035 18.6666 20.6667 18.6666H12.6667ZM18 20.6666C18.736 20.6666 19.3333 21.2626 19.3333 22V24.6666C19.3333 25.404 18.736 26 18 26H15.3333C14.5973 26 14 25.404 14 24.6666V22C14 21.2626 14.5973 20.6666 15.3333 20.6666H18ZM32.9993 22.2226C32.9993 21.916 32.7513 21.6666 32.4447 21.6666H30.222C29.9153 21.6666 29.666 21.916 29.666 22.2226V24.444C29.666 24.7506 29.9153 25 30.222 25H32.4447C32.7513 25 32.9993 24.7506 32.9993 24.444V22.2226ZM28.6667 17.3333C29.0347 17.3333 29.3333 17.632 29.3333 18V20.6666C29.3333 21.0346 29.0347 21.3333 28.6667 21.3333H26C25.632 21.3333 25.3333 21.0346 25.3333 20.6666V18C25.3333 17.632 25.632 17.3333 26 17.3333H28.6667ZM37.3365 18C37.3365 17.632 37.0379 17.3333 36.6699 17.3333H34.0032C33.6352 17.3333 33.3365 17.632 33.3365 18V20.6666C33.3365 21.0346 33.6352 21.3333 34.0032 21.3333H36.6699C37.0379 21.3333 37.3365 21.0346 37.3365 20.6666V18ZM37.3333 4.66663C37.3333 3.56146 36.4379 2.66663 35.3333 2.66663H27.3333C26.2288 2.66663 25.3333 3.56146 25.3333 4.66663V12.6666C25.3333 13.7718 26.2288 14.6666 27.3333 14.6666H35.3333C36.4379 14.6666 37.3333 13.7718 37.3333 12.6666V4.66663ZM20.6667 3.99996H12.6667C12.2983 3.99996 12 4.29805 12 4.66663V12.6666C12 13.0352 12.2983 13.3333 12.6667 13.3333H20.6667C21.035 13.3333 21.3333 13.0352 21.3333 12.6666V4.66663C21.3333 4.29805 21.035 3.99996 20.6667 3.99996ZM27.3333 3.99996H35.3333C35.7017 3.99996 36 4.29805 36 4.66663V12.6666C36 13.0352 35.7017 13.3333 35.3333 13.3333H27.3333C26.965 13.3333 26.6667 13.0352 26.6667 12.6666V4.66663C26.6667 4.29805 26.965 3.99996 27.3333 3.99996ZM32.6667 5.99996C33.4027 5.99996 34 6.59596 34 7.33329V9.99996C34 10.7373 33.4027 11.3333 32.6667 11.3333H30C29.264 11.3333 28.6667 10.7373 28.6667 9.99996V7.33329C28.6667 6.59596 29.264 5.99996 30 5.99996H32.6667ZM19.3333 7.33329C19.3333 6.59596 18.736 5.99996 18 5.99996H15.3333C14.5973 5.99996 14 6.59596 14 7.33329V9.99996C14 10.7373 14.5973 11.3333 15.3333 11.3333H18C18.736 11.3333 19.3333 10.7373 19.3333 9.99996V7.33329Z" fill="#444444"/>
</svg>