<svg width="48" height="36" viewBox="0 0 48 36" fill="none" xmlns="http://www.w3.org/2000/svg">
<g clip-path="url(#clip0_4331_10248)">
<path fill-rule="evenodd" clip-rule="evenodd" d="M16.0003 23.5778H13.2309L11.1542 15.3074C11.0557 14.927 10.8464 14.5907 10.5385 14.4322C9.7702 14.0338 8.92358 13.7168 8 13.5569V13.2385H12.4613C13.077 13.2385 13.5388 13.7168 13.6158 14.2723L14.6933 20.238L17.4613 13.2385H20.1538L16.0003 23.5778ZM21.6931 23.5778H19.0776L21.2313 13.2385H23.8467L21.6931 23.5778ZM27.2305 16.1028C27.3075 15.5459 27.7693 15.2275 28.308 15.2275C29.1546 15.1475 30.0769 15.3074 30.8465 15.7044L31.3083 13.4783C30.5387 13.1599 29.6921 13 28.9238 13C26.3852 13 24.5381 14.4322 24.5381 16.4198C24.5381 17.9319 25.8465 18.7259 26.7701 19.2042C27.7693 19.6811 28.1541 19.9995 28.0771 20.4764C28.0771 21.1918 27.3075 21.5102 26.5392 21.5102C25.6156 21.5102 24.692 21.2718 23.8467 20.8734L23.385 23.1009C24.3085 23.4979 25.3077 23.6578 26.2313 23.6578C29.0777 23.7363 30.8465 22.3056 30.8465 20.158C30.8465 17.4536 27.2305 17.2951 27.2305 16.1028ZM40 23.5778L37.9233 13.2385H35.6926C35.2309 13.2385 34.7691 13.5569 34.6151 14.0338L30.7696 23.5778H33.462L33.9994 22.0671H37.3076L37.6154 23.5778H40ZM36.0775 16.0228L36.8458 19.9196H34.6921L36.0775 16.0228Z" fill="#224DBA"/>
</g>
<defs>
<clipPath id="clip0_4331_10248">
<rect width="48" height="36" fill="white"/>
</clipPath>
</defs>
</svg>