<svg width="20" height="20" viewBox="0 0 20 20" fill="none" xmlns="http://www.w3.org/2000/svg">
<path d="M9.99512 0C12.666 0 15.1777 1.04004 17.0664 2.9292C20.9648 6.82812 20.9648 13.1719 17.0664 17.0708C15.1777 18.96 12.666 20 9.99512 20C7.32422 20 4.8125 18.96 2.92383 17.0708C-0.974609 13.1719 -0.974609 6.82812 2.92383 2.9292C4.8125 1.04004 7.32422 0 9.99512 0ZM9.99585 1C7.59155 1 5.33179 1.93604 3.63159 3.63623C0.122803 7.14502 0.122803 12.855 3.63159 16.3638C5.33179 18.064 7.59155 19 9.99585 19C12.4001 19 14.6599 18.064 16.3601 16.3638C19.8689 12.855 19.8689 7.14502 16.3601 3.63623C14.6599 1.93604 12.4001 1 9.99585 1ZM6.38973 5.69945C6.19485 5.56442 5.92556 5.58371 5.75195 5.75732C5.55664 5.95264 5.55664 6.26904 5.75195 6.46436L9.28717 10L5.75195 13.5356L5.69408 13.6049C5.55905 13.7998 5.57834 14.0691 5.75195 14.2427C5.84961 14.3403 5.97754 14.3892 6.10547 14.3892C6.2334 14.3892 6.36133 14.3403 6.45898 14.2427L9.99414 10.7071L13.5293 14.2427L13.6077 14.3068C13.6909 14.3617 13.7869 14.3892 13.8828 14.3892C14.0107 14.3892 14.1387 14.3403 14.2363 14.2427C14.4316 14.0474 14.4316 13.731 14.2363 13.5356L10.7011 10L14.2363 6.46436L14.2942 6.3951C14.4292 6.20023 14.4099 5.93094 14.2363 5.75732C14.041 5.56201 13.7246 5.56201 13.5293 5.75732L9.99414 9.29291L6.45898 5.75732L6.38973 5.69945Z" fill="#767676"/>
</svg>