<svg width="24" height="24" viewBox="0 0 24 24" fill="none" xmlns="http://www.w3.org/2000/svg">
<path d="M12.0008 15C11.7335 14.9989 11.4779 14.891 11.2908 14.7003L7.29079 10.7042C6.90307 10.3145 6.90307 9.68517 7.29079 9.29551C7.47856 9.10638 7.73416 9 8.00079 9C8.26743 9 8.52303 9.10638 8.71079 9.29551L12.0008 12.5823L15.2908 9.29551C15.4786 9.10638 15.7342 9 16.0008 9C16.2674 9 16.523 9.10638 16.7108 9.29551C17.0985 9.68517 17.0985 10.3145 16.7108 10.7042L12.7108 14.7003C12.5237 14.891 12.268 14.9989 12.0008 15Z" fill="#767676"/>
</svg>