<svg width="24" height="24" viewBox="0 0 24 24" fill="none" xmlns="http://www.w3.org/2000/svg">
<path d="M13 13.5752V19.5C13 19.7764 13.2236 20 13.5 20C13.7764 20 14 19.7764 14 19.5V13.7285L20.0645 4.78027C20.2192 4.55176 20.1597 4.24121 19.9307 4.08594C19.8156 4.0083 19.6795 3.98541 19.5528 4.01062C19.5346 4.00861 19.5187 4 19.5 4H4.5C4.48456 4 4.4715 4.00745 4.45642 4.00879C4.42261 4.01166 4.39081 4.01874 4.35779 4.02869C4.32495 4.03864 4.29468 4.05023 4.26508 4.06635C4.25183 4.07349 4.23694 4.07452 4.22412 4.08301C4.21027 4.09216 4.20288 4.10651 4.19025 4.11676C4.1629 4.13885 4.13928 4.16241 4.11719 4.1897C4.09747 4.21411 4.08069 4.2384 4.06604 4.26556C4.05072 4.29382 4.03925 4.32245 4.02954 4.35358C4.01935 4.38611 4.01306 4.41785 4.0097 4.45178C4.00806 4.46844 4 4.48291 4 4.5C4 4.51562 4.00745 4.52875 4.00885 4.54401C4.01172 4.57727 4.01874 4.60864 4.0285 4.6413C4.03851 4.67456 4.05023 4.7052 4.06653 4.73517C4.07367 4.74835 4.07458 4.76312 4.08301 4.77588L10 13.7256V19.5C10 19.7764 10.2236 20 10.5 20C10.7764 20 11 19.7764 11 19.5V13.5752C11 13.4771 10.9712 13.3813 10.917 13.2993L5.42993 5H18.7075L13.0859 13.2949C13.0298 13.3774 13 13.4751 13 13.5752Z" fill="#FFFFFF"/>
</svg>