<svg width="226" height="48" viewBox="0 0 226 48" fill="none" xmlns="http://www.w3.org/2000/svg">
<g clip-path="url(#clip0_4330_26311)">
<path d="M118.664 11.9345C114.192 12.0801 109.748 12.7072 105.411 13.8051V46.94H112.701V18.7062C114.605 18.3776 116.532 18.2004 118.465 18.1761C125.749 18.1761 127.475 20.6703 127.475 25.933V46.94H134.759V24.6609C134.759 16.6422 130.852 11.9345 118.664 11.9345ZM30.1832 40.7046C28.1777 41.1203 26.1371 41.3437 24.0892 41.3718C14.0448 41.3718 7.68288 35.5417 7.68288 23.6945C7.68288 12.82 13.5837 6.65316 24.4444 6.65316C28.3632 6.64242 32.2572 7.27433 35.9718 8.52377C36.6858 6.34129 37.1315 4.0799 37.299 1.78956C33.8533 0.623538 29.5476 0 24.4444 0C8.94155 0 0 8.6173 0 23.9314C0 37.986 8.1502 48.0125 23.5845 48.0125C28.5693 48.0125 33.8533 47.0834 37.6293 45.562V21.9423H30.2081L30.1832 40.7046ZM156.561 11.9345C144.965 11.9345 140.392 19.7537 140.392 29.6368C140.392 40.9727 146.292 47.7194 158.462 47.7194C162.151 47.8137 165.815 47.0897 169.192 45.5994C169.659 43.4108 170.058 40.8917 170.319 38.9712C166.654 40.6193 162.68 41.4694 158.661 41.4653C152.168 41.4653 148.723 38.6157 147.794 32.7358H171.048C171.318 30.8774 171.451 29.0018 171.447 27.1239C171.466 18.7623 166.992 11.9345 156.561 11.9345ZM147.676 26.65C148.299 21.0382 150.984 18.0327 156.156 18.0327C161.191 18.0327 164.107 21.2128 164.107 26.65H147.676ZM195.574 19.2923C195.923 17.241 196.159 15.1718 196.278 13.0943H184.75V0.530008C182.282 0.524134 179.825 0.881286 177.46 1.59002V36.3959C177.46 44.5019 181.965 47.7319 189.056 47.7319C191.159 47.7747 193.251 47.4149 195.219 46.6719C195.611 44.7514 195.879 42.4942 196.079 40.5051C194.252 41.172 192.322 41.5097 190.377 41.5027C186.869 41.5027 184.769 39.8441 184.769 35.5355V19.3235L195.574 19.2923ZM99.4412 19.2923C99.7775 17.2278 99.998 15.1461 100.102 13.0569H88.5743V0.530008C86.1075 0.524203 83.6532 0.881361 81.2902 1.59002V36.3959C81.2902 44.5019 85.7952 47.7319 92.88 47.7319C94.9829 47.7751 97.0747 47.4153 99.0424 46.6719C99.4412 44.7514 99.7029 42.4942 99.9023 40.5051C98.0777 41.1714 96.1495 41.5091 94.2072 41.5027C90.6929 41.5027 88.5992 39.8441 88.5992 35.5355V19.3235L99.4412 19.2923ZM60.4411 11.9345C48.8265 11.9345 44.2404 19.7537 44.2404 29.6368C44.2404 40.9727 50.135 47.7194 62.3104 47.7194C66.0016 47.8138 69.6679 47.0898 73.0465 45.5994C73.5076 43.4108 73.9064 40.8917 74.1744 38.9712C70.5064 40.6192 66.5306 41.4694 62.5098 41.4653C56.0171 41.4653 52.5402 38.6157 51.6491 32.7358H74.9034C75.168 30.8769 75.2991 29.0015 75.2959 27.1239C75.3271 18.7623 70.8221 11.9345 60.4411 11.9345ZM51.5432 26.65C52.1663 21.0382 54.8581 18.0327 60.0237 18.0327C65.0583 18.0327 67.9745 21.2128 67.9745 26.65H51.5432ZM222.274 19.2923H226.012V15.5885H222.274V19.2923ZM222.274 11.8472H226.012V8.106H222.274V11.8472ZM214.84 4.40218H218.579V0.660951H214.84V4.40218ZM207.4 19.2923H211.139V15.5885H207.4V19.2923ZM214.84 11.8472H218.579V8.106H214.84V11.8472ZM222.28 0.679657V4.42089H226.019V0.679657H222.28ZM207.4 11.8472H211.139V8.106H207.4V11.8472ZM207.4 4.40218H211.139V0.660951H207.4V4.40218ZM214.84 19.2923H218.579V15.5885H214.84V19.2923Z" fill="#EC0000"/>
</g>
<defs>
<clipPath id="clip0_4330_26311">
<rect width="226" height="48" fill="white"/>
</clipPath>
</defs>
</svg>