<svg width="20" height="20" viewBox="0 0 20 20" fill="none" xmlns="http://www.w3.org/2000/svg">
<path d="M12.653 0.410124C12.6107 0.176875 12.4065 0 12.1611 0H7.84009L7.75021 0.00805567C7.51696 0.0503916 7.34009 0.25454 7.34009 0.5V2.362L7.33067 2.42852C7.30576 2.51525 7.23234 2.59206 7.12073 2.63414C6.32979 2.93047 5.59199 3.34923 4.93207 3.87351C4.81566 3.96593 4.6711 3.98093 4.56126 3.9188L2.90654 2.9864L2.82549 2.94971C2.60473 2.8726 2.35373 2.95936 2.23066 3.16758L0.069658 6.82358L0.0304284 6.90621C-0.0523589 7.13168 0.0375461 7.3911 0.254356 7.51345L1.90236 8.44345L1.96075 8.48709C2.02971 8.55425 2.06187 8.65526 2.04369 8.766C1.97454 9.17113 1.93909 9.5842 1.93909 10C1.93909 10.4158 1.97454 10.8289 2.04421 11.2371C2.06639 11.3719 2.01017 11.4958 1.90268 11.5564L0.254356 12.4866L0.17909 12.5385C-0.00527792 12.6925 -0.0570178 12.9621 0.069658 13.1764L2.23066 16.8324L2.2825 16.9047C2.43508 17.0819 2.69582 17.1323 2.90654 17.0136L4.56054 16.0816L4.63055 16.0534C4.72807 16.0281 4.83961 16.0524 4.93308 16.1263C5.59114 16.6502 6.329 17.0692 7.12166 17.3662C7.26031 17.4185 7.34009 17.5254 7.34009 17.639V19.5L7.34814 19.5899C7.39048 19.8231 7.59463 20 7.84009 20H12.1611L12.251 19.9919C12.4842 19.9496 12.6611 19.7455 12.6611 19.5V17.639L12.6705 17.5722C12.6955 17.4851 12.7691 17.4078 12.8804 17.3659C13.6714 17.0695 14.4092 16.6508 15.0691 16.1265C15.1855 16.0341 15.3301 16.0191 15.4399 16.0812L17.0946 17.0136L17.1757 17.0503C17.3965 17.1274 17.6475 17.0406 17.7706 16.8323L19.9306 13.1763L19.9698 13.0937C20.0525 12.8683 19.9626 12.609 19.7459 12.4866L18.0989 11.5566L18.0406 11.513C17.9717 11.4457 17.9393 11.3443 17.9574 11.2342C18.0266 10.8289 18.0621 10.4158 18.0621 10C18.0621 9.5842 18.0266 9.17113 17.957 8.76288C17.9348 8.62758 17.9907 8.50436 18.0985 8.44363L19.7459 7.51338L19.8212 7.46141C20.0054 7.30747 20.0572 7.03793 19.9306 6.82367L17.7706 3.16767L17.7187 3.09534C17.5662 2.9181 17.3054 2.86764 17.0946 2.9864L15.4406 3.9184L15.3707 3.94661C15.2734 3.97183 15.1622 3.94743 15.069 3.87342C14.4092 3.34923 13.6714 2.93047 12.8795 2.63378C12.7409 2.58155 12.6611 2.47467 12.6611 2.362V0.5L12.653 0.410124ZM8.34009 1H11.6611V2.362L11.6683 2.49636C11.7206 2.98245 12.0546 3.39151 12.5277 3.56986C13.2223 3.83008 13.8686 4.19695 14.4471 4.65649C14.8752 4.9964 15.4589 5.05695 15.9323 4.7892L17.1588 4.09808L18.8102 6.89333L17.6072 7.57262L17.492 7.64579C17.0878 7.93352 16.8887 8.42872 16.9707 8.92801C17.0315 9.28415 17.0621 9.64095 17.0621 10C17.0621 10.359 17.0315 10.7159 16.9712 11.0689C16.8812 11.6157 17.1265 12.1565 17.6077 12.4276L18.8102 13.1067L17.1588 15.9019L15.9315 15.2104L15.8001 15.1456C15.3541 14.9564 14.8363 15.0345 14.4472 15.3434C13.8686 15.8031 13.2223 16.1699 12.5287 16.4298C12.0116 16.6247 11.6611 17.0948 11.6611 17.639V19H8.34009V17.639L8.3329 17.5045C8.28056 17.0178 7.94681 16.6086 7.47345 16.4301C6.77838 16.1697 6.13223 15.8027 5.5545 15.3428C5.12498 15.0034 4.54174 14.9433 4.06891 15.2108L2.84231 15.902L1.1901 13.1067L2.39382 12.4274L2.50908 12.3543C2.91327 12.0664 3.11256 11.5704 3.03044 11.0718C2.96971 10.7159 2.93909 10.359 2.93909 10C2.93909 9.64095 2.96971 9.28415 3.02996 8.93112C3.11991 8.38333 2.87483 7.84352 2.39349 7.57237L1.1901 6.89326L2.84231 4.09803L4.06963 4.7896L4.20108 4.85442C4.6471 5.04363 5.16492 4.96551 5.554 4.65658C6.13255 4.19695 6.77892 3.83008 7.47251 3.57022C7.98962 3.3753 8.34009 2.90617 8.34009 2.362V1ZM12.724 7.34548C14.2358 8.82261 14.2358 11.2224 12.7239 12.7009C11.2187 14.1705 8.78366 14.1705 7.27701 12.7006C5.76542 11.2224 5.76542 8.82261 7.27715 7.34548C8.78356 5.87466 11.2188 5.87466 12.724 7.34548ZM7.97575 11.9852C9.09351 13.0757 10.9085 13.0757 12.025 11.9856C13.1354 10.8998 13.1354 9.14559 12.0252 8.06072C10.9084 6.96956 9.09369 6.96954 7.97596 8.06079C6.86575 9.14566 6.86578 10.8998 7.97575 11.9852Z" fill="#444444"/>
</svg>