<svg width="24" height="24" viewBox="0 0 24 24" fill="none" xmlns="http://www.w3.org/2000/svg">
<path d="M12 2C14.6709 2 17.1826 3.04053 19.0713 4.92969C22.9695 8.82863 22.9696 15.1724 19.0713 19.0713C17.1826 20.9603 14.6708 22 12 22C9.32922 22 6.81736 20.9603 4.92871 19.0713C1.03035 15.1724 1.03052 8.82863 4.92871 4.92969C6.81738 3.04053 9.3291 2 12 2ZM12 3C9.5957 3 7.33594 3.93652 5.63574 5.63672C2.1272 9.14553 2.12703 14.8555 5.63574 18.3643C7.33591 20.0643 9.59582 21 12 21C14.4042 21 16.6641 20.0643 18.3643 18.3643C21.873 14.8555 21.8728 9.14553 18.3643 5.63672C16.6641 3.93652 14.4043 3 12 3ZM15.5352 7.75781C15.7305 7.5625 16.0469 7.5625 16.2422 7.75781C16.4156 7.93143 16.4348 8.20073 16.2998 8.39551L16.2422 8.46484L12.707 12L16.2422 15.5361C16.4373 15.7315 16.4374 16.0479 16.2422 16.2432C16.1446 16.3407 16.0165 16.3896 15.8887 16.3896C15.7927 16.3896 15.6965 16.3616 15.6133 16.3066L15.5352 16.2432L12 12.707L8.46484 16.2432C8.36722 16.3407 8.23915 16.3896 8.11133 16.3896C7.9835 16.3896 7.85544 16.3407 7.75781 16.2432C7.5842 16.0696 7.56516 15.7994 7.7002 15.6045L7.75781 15.5361L11.293 12L7.75781 8.46387C7.56283 8.26862 7.56283 7.95306 7.75781 7.75781C7.93138 7.58425 8.20065 7.56431 8.39551 7.69922L8.46484 7.75781L12 11.293L15.5352 7.75781Z" fill="#444444"/>
</svg>