<svg width="24" height="24" viewBox="0 0 24 24" fill="none" xmlns="http://www.w3.org/2000/svg">
<path d="M15.9945 3.84883C15.9183 2.81463 15.0562 2 14.003 2H9.997L9.84791 2.00548C8.81426 2.08171 8 2.94424 8 3.998V5L5.517 4.99728L5.466 5H4.5L4.41012 5.00806C4.17688 5.05039 4 5.25454 4 5.5L4.00806 5.58988C4.05039 5.82312 4.25454 6 4.5 6H5V18.024L5.00486 18.2223C5.10819 20.3243 6.84535 21.997 8.973 21.997H15.027L15.2253 21.9921C17.3273 21.8888 19 20.1517 19 18.024V6H19.5L19.5899 5.99194C19.8231 5.94961 20 5.74546 20 5.5C20 5.22386 19.7761 5 19.5 5L18.517 4.99728L18.466 5H16V3.998L15.9945 3.84883ZM6 6H18V18.024L17.995 18.1987C17.9045 19.7592 16.6102 20.997 15.027 20.997H8.973L8.79832 20.992C7.23776 20.9015 6 19.6072 6 18.024V6ZM8.5 8C8.74546 8 8.94961 8.17688 8.99194 8.41012L9 8.5V18.5C9 18.7761 8.77614 19 8.5 19C8.25454 19 8.05039 18.8231 8.00806 18.5899L8 18.5V8.5C8 8.22386 8.22386 8 8.5 8ZM12.4919 8.41012C12.4496 8.17688 12.2455 8 12 8C11.7239 8 11.5 8.22386 11.5 8.5V18.5L11.5081 18.5899C11.5504 18.8231 11.7545 19 12 19C12.2761 19 12.5 18.7761 12.5 18.5V8.5L12.4919 8.41012ZM15.5 8C15.7455 8 15.9496 8.17688 15.9919 8.41012L16 8.5V18.5C16 18.7761 15.7761 19 15.5 19C15.2545 19 15.0504 18.8231 15.0081 18.5899L15 18.5V8.5C15 8.22386 15.2239 8 15.5 8ZM9.997 3H14.003L14.1193 3.00671C14.6154 3.06429 15 3.48566 15 3.998V5H9V3.998L9.0067 3.88151C9.06426 3.38477 9.48539 3 9.997 3Z" fill="#444444"/>
</svg>