<svg width="24" height="24" viewBox="0 0 24 24" fill="none" xmlns="http://www.w3.org/2000/svg">
<path d="M12 2C17.5142 2 22 6.48584 22 12C22 14.5731 21.0149 16.9146 19.4126 18.6885C19.3817 18.7363 19.3453 18.7772 19.3005 18.8118C17.4741 20.7681 14.8813 22 12 22C9.11871 22 6.52594 20.7681 4.69946 18.8118C4.65466 18.7772 4.61829 18.7363 4.5874 18.6885C2.98511 16.9146 2 14.5731 2 12C2 6.48584 6.48584 2 12 2ZM15.5 16.2935C15.0547 16.2935 14.4319 16.3783 13.7253 16.5337L13.4565 16.5952L13.1216 16.6807L13.115 16.6824C12.725 16.7839 12.3224 16.8887 12 16.8887C11.7277 16.8887 11.4761 16.8346 11.2473 16.7747L10.9233 16.6875C10.7176 16.6331 10.5104 16.5855 10.3017 16.5447L9.98779 16.4888L9.7085 16.4419L9.69704 16.4399C9.31135 16.3744 8.83554 16.2935 8.5 16.2935C6.96578 16.2935 5.61246 17.0045 5.50665 17.8394L5.5 17.9443V18.2079C7.13983 19.9242 9.44458 21 12 21C14.4489 21 16.6677 20.012 18.2916 18.4191L18.5 18.2079V17.9443C18.5 17.0034 17.2104 16.2935 15.5 16.2935ZM3 12C3 13.9424 3.62488 15.7381 4.67542 17.2104C5.15924 16.107 6.68115 15.2935 8.5 15.2935C8.83906 15.2935 9.23063 15.3488 9.60244 15.4099L10.147 15.5015C10.3784 15.5386 10.6086 15.5835 10.8368 15.6359L11.1777 15.7202L11.345 15.7654C11.5762 15.8287 11.7947 15.8887 12 15.8887C12.1305 15.8887 12.3329 15.8472 12.5468 15.7951L13.2241 15.6226C13.855 15.4722 14.7607 15.2935 15.5 15.2935C17.4162 15.2935 18.8813 16.0614 19.3373 17.1934C20.3804 15.7243 21 13.9348 21 12C21 7.0376 16.9624 3 12 3C7.0376 3 3 7.0376 3 12ZM11.9976 4.6001C13.1099 4.6001 14.2319 5.10693 14.9258 5.92236C15.4576 6.54751 15.7041 7.31246 15.6302 8.09507L15.605 8.29102L15.2183 11.3843C14.9648 13.0474 13.6714 14.1558 11.9976 14.1558C10.3909 14.1558 9.13506 13.131 8.81728 11.5854L8.78369 11.3975L8.39307 8.27295C8.25684 7.43994 8.49805 6.59766 9.07422 5.91992C9.7666 5.10596 10.8867 4.6001 11.9976 4.6001ZM9.83643 6.56787C9.58756 6.86015 9.31614 7.32967 9.36214 7.95575L9.38281 8.13037L9.77393 11.2603C9.94873 12.4062 10.8223 13.1558 11.9976 13.1558C13.1169 13.1558 13.963 12.4793 14.1963 11.4178L14.228 11.2471L14.6152 8.14893C14.7339 7.41797 14.4351 6.88867 14.1641 6.57031C13.6553 5.97168 12.8252 5.6001 11.9976 5.6001C11.1719 5.6001 10.3438 5.9707 9.83643 6.56787Z" fill="#EC0000"/>
</svg>