<svg viewBox="0 0 158 158" fill="none" xmlns="http://www.w3.org/2000/svg">
<path d="M158 79C158 66.4016 154.987 53.9858 149.212 42.7888C143.437 31.5918 135.069 21.9383 124.804 14.6338C114.539 7.32926 102.676 2.58562 90.2051 0.798691C77.7341 -0.988237 65.0165 0.233368 53.1136 4.36157C41.2107 8.48977 30.4678 15.4048 21.7812 24.5297C13.0946 33.6547 6.71634 44.7247 3.17862 56.8163C-0.359109 68.9078 -0.953682 81.6701 1.44451 94.0382C3.8427 106.406 9.16411 118.021 16.9647 127.914L22.7748 123.333C15.7048 114.367 10.8818 103.839 8.70822 92.6297C6.53463 81.42 7.07352 69.853 10.2799 58.894C13.4863 47.9349 19.2672 37.9016 27.1402 29.6313C35.0132 21.361 44.75 15.0936 55.5381 11.3521C66.3262 7.61051 77.8526 6.50331 89.1557 8.12288C100.459 9.74245 111.211 14.0418 120.514 20.6622C129.817 27.2826 137.402 36.032 142.636 46.1803C147.87 56.3286 150.601 67.5815 150.601 79H158Z" fill="#767676"/>
</svg>