<svg width="24" height="24" viewBox="0 0 24 24" fill="none" xmlns="http://www.w3.org/2000/svg">
<path d="M18.079 5.00012C19.1128 5.00012 20.0533 5.40044 20.7539 6.05448C20.7898 6.07598 20.823 6.10362 20.8529 6.13614C20.8731 6.15808 20.891 6.18134 20.9065 6.20561C21.5316 6.85556 21.9344 7.72115 21.9927 8.67964L22 8.92112V15.1091C22 17.1911 20.3653 18.8909 18.3092 18.9951L18.109 19.0001H5.891C3.80902 19.0001 2.10926 17.3654 2.00506 15.3094L2 15.1091V8.92112C2 6.82364 3.64783 5.11026 5.71926 5.00523L5.921 5.00012H18.079ZM14.52 12.6421L13.3275 13.7411C12.6155 14.3753 11.5629 14.4126 10.8056 13.8484L10.6673 13.7355L9.48 12.6421L3.99619 17.2928C4.46366 17.6988 5.06281 17.9571 5.72111 17.9952L5.891 18.0001H18.109C18.8344 18.0001 19.4973 17.7331 20.0048 17.2919L14.52 12.6421ZM3.00769 8.70761L3 8.92112V15.1091C3 15.6196 3.13225 16.0991 3.36435 16.5153L8.739 11.9591L3.56547 7.19375C3.2495 7.62383 3.04846 8.14357 3.00769 8.70761ZM20.4375 7.19779L15.262 11.9601L20.6362 16.5143C20.842 16.1449 20.9692 15.7255 20.9951 15.279L21 15.1091V8.92112C21 8.3483 20.835 7.81392 20.5499 7.36292L20.4375 7.19779ZM5.921 6.00012C5.31553 6.00012 4.753 6.18447 4.2865 6.5001L11.3385 12.9943C11.6845 13.3025 12.1915 13.3282 12.5597 13.0756L12.6564 12.9998L19.7165 6.50213C19.3078 6.22487 18.8252 6.04847 18.3044 6.0087L18.079 6.00012H5.921Z" fill="#767676"/>
</svg>