<svg width="24" height="24" viewBox="0 0 24 24" fill="none" xmlns="http://www.w3.org/2000/svg">
<path d="M19.0022 14.9977C19.0037 15.2632 18.8993 15.5183 18.7121 15.7067C18.5244 15.8957 18.2688 16.0021 18.0021 16.0021C17.7355 16.0021 17.4799 15.8957 17.2921 15.7067L12.0021 10.4144L6.71214 15.7067C6.32002 16.0983 5.68426 16.0983 5.29214 15.7067C4.90002 15.3152 4.90002 14.6803 5.29214 14.2888L11.2921 8.29745C11.4799 8.10841 11.7355 8.00208 12.0021 8.00208C12.2688 8.00208 12.5244 8.10841 12.7121 8.29745L18.7121 14.2888C18.8993 14.4772 19.0037 14.7323 19.0022 14.9977Z" fill="#444444"/>
</svg>