<svg width="24" height="24" viewBox="0 0 24 24" fill="none" xmlns="http://www.w3.org/2000/svg">
<path d="M12 2C17.514 2 22 6.486 22 12C22 17.514 17.514 22 12 22C6.486 22 2 17.514 2 12C2 6.486 6.486 2 12 2ZM12 3C7.037 3 3 7.037 3 12C3 16.963 7.037 21 12 21C16.963 21 21 16.963 21 12C21 7.037 16.963 3 12 3ZM16.001 7.23047C16.15 6.99647 16.4594 6.93213 16.6924 7.07812C16.8985 7.21051 16.9755 7.469 16.8857 7.68848L16.8447 7.76953L11.6914 15.8398C11.6084 15.9688 11.4713 16.0534 11.3193 16.0674L11.2695 16.0703C11.1616 16.0703 11.0569 16.0352 10.9707 15.9707L10.9092 15.917L7.13965 12.001C6.94865 11.802 6.95432 11.4849 7.15332 11.2939C7.32927 11.1251 7.59934 11.1103 7.79199 11.248L7.86035 11.3066L11.1895 14.7656L16.001 7.23047Z" fill="#3A8340"/>
</svg>