<svg width="24" height="24" viewBox="0 0 24 24" fill="none" xmlns="http://www.w3.org/2000/svg">
<path d="M12 2C17.5142 2 22 6.48584 22 12C22 17.5142 17.5142 22 12 22C6.48584 22 2 17.5142 2 12C2 6.48584 6.48584 2 12 2ZM12 3C7.0376 3 3 7.0376 3 12C3 16.9624 7.0376 21 12 21C16.9624 21 21 16.9624 21 12C21 7.0376 16.9624 3 12 3ZM12 10C12.2457 10 12.4499 10.1768 12.4922 10.4102L12.5 10.5V17.5C12.5 17.7764 12.2764 18 12 18C11.7543 18 11.5501 17.8232 11.5078 17.5898L11.5 17.5V10.5C11.5 10.2236 11.7236 10 12 10ZM12 6C12.2457 6 12.4499 6.17679 12.4922 6.41016L12.5 6.5V7.5C12.5 7.77637 12.2764 8 12 8C11.7543 8 11.5501 7.82321 11.5078 7.58984L11.5 7.5V6.5C11.5 6.22363 11.7236 6 12 6Z" fill="#23779A"/>
</svg>