<svg width="24" height="24" viewBox="0 0 24 24" fill="none" xmlns="http://www.w3.org/2000/svg">
<path d="M9.90815 3.20654C10.8076 1.6502 13.0128 1.59971 14.0097 3.07959L14.1054 3.23291L21.6738 18.3794C22.576 19.9408 21.5072 21.8818 19.7441 21.9946L19.582 22.0005H4.41792C2.61403 22.0002 1.46539 20.1043 2.23628 18.5464L2.31245 18.4058L9.90815 3.20654ZM13.2255 3.70654C12.7069 2.80927 11.4466 2.76674 10.8574 3.57861L10.7812 3.69483L3.19233 18.8794C2.66985 19.7835 3.27693 20.9063 4.28999 20.9946L4.41792 21.0005H19.582C20.6274 21.0005 21.2969 19.9141 20.8544 18.9702L20.7929 18.853L13.2255 3.70654ZM12 17.0005C12.2453 17.0005 12.4496 17.1766 12.4921 17.4097L12.5 17.5005V18.5005C12.4997 18.7764 12.2759 19.0005 12 19.0005C11.7547 19.0004 11.5502 18.8234 11.5078 18.5903L11.5 18.5005V17.5005C11.5 17.2244 11.7239 17.0006 12 17.0005ZM12 9.50049C12.2453 9.50049 12.4496 9.67663 12.4921 9.90967L12.5 10.0005V15.0005C12.4997 15.2764 12.2759 15.5005 12 15.5005C11.7547 15.5004 11.5502 15.3234 11.5078 15.0903L11.5 15.0005V10.0005C11.5 9.72439 11.7239 9.50056 12 9.50049Z" fill="#946F00"/>
</svg>