<svg width="19" height="21" viewBox="0 0 19 21" fill="none" xmlns="http://www.w3.org/2000/svg">
<path d="M14.0134 0.418046C13.9612 0.0977257 13.6103 -0.0971056 13.3039 0.0497242L11.3458 0.988157L9.38926 0.0865133L9.30749 0.0571386C9.1961 0.027764 9.07697 0.0375555 8.97074 0.0865133L7.01 0.990078L5.04926 0.0865133L4.96749 0.0571386C4.8561 0.027764 4.73697 0.0375555 4.63074 0.0865133L2.67417 0.988157L0.716095 0.0497242L0.638774 0.0200096C0.327365 -0.0713779 0 0.160881 0 0.500615V16.5406L0.00651165 16.6225C0.0578326 16.9401 0.40318 17.1355 0.708953 16.9949L3.999 15.48L3.9996 19.5404C3.9996 19.9052 4.37758 20.1472 4.70886 19.9945L6.6696 19.091L8.63034 19.9945C8.76313 20.0557 8.91607 20.0557 9.04886 19.9945L11.0096 19.091L12.9703 19.9945C13.1031 20.0557 13.2561 20.0557 13.3889 19.9945L15.3496 19.091L17.3103 19.9945C17.6416 20.1472 18.0196 19.9052 18.0196 19.5404V3.50042C18.0196 3.13237 17.6354 2.89046 17.3035 3.04952L15.3454 3.98796L14.019 3.377L14.02 0.500615L14.0134 0.418046ZM11.2189 4.99452L13.1796 4.09095L15.1403 4.99452C15.2755 5.05682 15.4315 5.05564 15.5657 4.99131L17.0196 4.2945V18.7595L15.5589 18.0863C15.4261 18.0251 15.2731 18.0251 15.1403 18.0863L13.1796 18.9899L11.2189 18.0863C11.0861 18.0251 10.9331 18.0251 10.8003 18.0863L8.8396 18.9899L6.87886 18.0863C6.74607 18.0251 6.59313 18.0251 6.46034 18.0863L4.9996 18.7595V4.2945L6.4535 4.99131C6.58774 5.05564 6.74367 5.05682 6.87886 4.99452L8.8396 4.09095L10.8003 4.99452C10.9331 5.05571 11.0861 5.05571 11.2189 4.99452ZM9.18 1.09115L11.1407 1.99472L11.224 2.02448C11.3374 2.05402 11.4587 2.04297 11.5661 1.99151L13.02 1.2947L13.019 3.068L12.9703 3.08631L11.0096 3.98988L9.04886 3.08631C8.91607 3.02512 8.76313 3.02512 8.63034 3.08631L6.67377 3.98796L4.7157 3.04952C4.3838 2.89046 3.9996 3.13237 3.9996 3.50042L3.999 14.38L1 15.7603V1.2947L2.4539 1.99151L2.53671 2.02253C2.64968 2.05377 2.77111 2.04456 2.87926 1.99472L4.84 1.09115L6.80074 1.99472L6.88251 2.02409C6.9939 2.05347 7.11303 2.04368 7.21926 1.99472L9.18 1.09115ZM15.0098 13.5004C15.0098 13.2243 14.7859 13.0004 14.5098 13.0004H7.5098L7.41992 13.0085C7.18668 13.0508 7.0098 13.255 7.0098 13.5004C7.0098 13.7766 7.23366 14.0004 7.5098 14.0004H14.5098L14.5997 13.9924C14.8329 13.95 15.0098 13.7459 15.0098 13.5004ZM14.5098 10.0004C14.7859 10.0004 15.0098 10.2243 15.0098 10.5004C15.0098 10.7459 14.8329 10.95 14.5997 10.9924L14.5098 11.0004H7.5098C7.23366 11.0004 7.0098 10.7766 7.0098 10.5004C7.0098 10.255 7.18668 10.0508 7.41992 10.0085L7.5098 10.0004H14.5098ZM15.0098 7.50042C15.0098 7.22427 14.7859 7.00042 14.5098 7.00042H7.5098L7.41992 7.00847C7.18668 7.05081 7.0098 7.25496 7.0098 7.50042C7.0098 7.77656 7.23366 8.00042 7.5098 8.00042H14.5098L14.5997 7.99236C14.8329 7.95002 15.0098 7.74588 15.0098 7.50042Z" fill="#EC0000"/>
</svg>