<svg width="24" height="24" viewBox="0 0 24 24" fill="none" xmlns="http://www.w3.org/2000/svg">
<path d="M8.30078 3.43263C9.46191 2.37745 10.9727 1.87892 12.5391 2.02882C15.2471 2.28698 17.3849 4.663 17.4955 7.4878L17.5 7.71778V11.9971H17.9912C19.0483 11.9971 19.9176 12.8184 19.9945 13.8562L20 14.0059V18.0244C20 20.1485 18.3242 21.8887 16.2253 21.9922L16.0273 21.9971H7.97266C5.8486 21.9971 4.10839 20.3212 4.00487 18.2224L4 18.0244V14.0059C4 12.9488 4.82129 12.0794 5.85912 12.0026L6.00879 11.9971H6.5V7.50294C6.5 5.95704 7.15625 4.47316 8.30078 3.43263ZM6.00879 12.9971C5.48926 12.9971 5.06075 13.3914 5.00593 13.8961L5 14.0059V18.0244C5 19.605 6.2404 20.9014 7.7983 20.992L7.97266 20.9971H16.0273C17.6075 20.9971 18.9043 19.7571 18.9949 18.1988L19 18.0244V14.0059C19 13.4868 18.6061 13.0579 18.101 13.003L17.9912 12.9971H6.00879ZM14.7568 14.0713C14.5234 13.9307 14.2139 14.0054 14.0713 14.2427L11.4004 18.6939L9.85352 17.1465L9.78426 17.0886C9.58939 16.9536 9.3201 16.9729 9.14648 17.1465C8.95117 17.3418 8.95117 17.6582 9.14648 17.8535L11.1465 19.8535L11.207 19.9049C11.2922 19.9666 11.3945 20 11.5 20L11.5615 19.9961C11.7139 19.9776 11.8496 19.8892 11.9287 19.7573L14.9287 14.7573L14.9682 14.6761C15.0522 14.4543 14.9678 14.1976 14.7568 14.0713ZM12.4434 3.02394C11.1553 2.90431 9.92285 3.31007 8.97363 4.17237C8.09564 4.97071 7.5687 6.08749 7.50626 7.2664L7.5 7.50294V11.9971H8.5V7.49708C8.5 5.56739 10.0703 3.99708 12 3.99708C13.8654 3.99708 15.3949 5.46445 15.4948 7.30536L15.5 7.49708V11.9971H16.5V7.71778C16.5 5.30274 14.7188 3.24122 12.4434 3.02394ZM9.50533 7.33296L9.5 7.49708V11.9971H14.5V7.49708C14.5 6.11866 13.3789 4.99708 12 4.99708C10.6762 4.99708 9.5901 6.03073 9.50533 7.33296Z" fill="#444444"/>
</svg>