<svg width="24" height="24" viewBox="0 0 24 24" fill="none" xmlns="http://www.w3.org/2000/svg">
<path d="M22 12C22 6.47686 17.5231 2 12 2C6.47686 2 2 6.47686 2 12C2 17.5231 6.47686 22 12 22C17.5231 22 22 17.5231 22 12ZM3 12C3 7.02914 7.02914 3 12 3C16.9709 3 21 7.02914 21 12C21 16.9709 16.9709 21 12 21C7.02914 21 3 16.9709 3 12ZM10.1118 13.3964C10.3879 13.3964 10.6118 13.6202 10.6118 13.8964C10.6118 14.1418 10.4349 14.346 10.2016 14.3883L10.1118 14.3964L8.1717 14.3976C8.94058 15.6289 10.2696 16.4311 11.7553 16.5082L12.0302 16.514C13.8772 16.514 15.5152 15.3908 16.1996 13.7081C16.3036 13.4523 16.5953 13.3293 16.8511 13.4333C17.1069 13.5374 17.2299 13.8291 17.1259 14.0849C16.3194 16.0678 14.429 17.415 12.2711 17.5087L11.9911 17.5143C10.1646 17.5143 8.50163 16.6165 7.49004 15.1784L7.49053 17.0251C7.49053 17.2706 7.31366 17.4747 7.08041 17.517L6.99053 17.5251C6.74507 17.5251 6.54092 17.3482 6.49859 17.115L6.49053 17.0251V13.8964C6.49053 13.6509 6.66741 13.4468 6.90066 13.4044L6.99053 13.3964H10.1118ZM17.5014 6.88503C17.4591 6.65178 17.2549 6.47491 17.0095 6.47491L16.9196 6.48296C16.6863 6.5253 16.5095 6.72945 16.5095 6.97491L16.5096 8.82302C15.498 7.38437 13.8351 6.48566 12.0095 6.48566L11.7314 6.49113C9.59989 6.58257 7.727 7.89756 6.90378 9.84372C6.7962 10.098 6.91517 10.3914 7.16949 10.499C7.42382 10.6066 7.7172 10.4876 7.82478 10.2333C8.52332 8.58189 10.1453 7.48603 11.9692 7.48603L12.2451 7.49177C13.7292 7.56894 15.0579 8.3714 15.827 9.60249L13.887 9.60364L13.7971 9.61169C13.5639 9.65403 13.387 9.85818 13.387 10.1036C13.387 10.3798 13.6108 10.6036 13.887 10.6036H17.0095L17.0993 10.5956C17.3326 10.5532 17.5095 10.3491 17.5095 10.1036V6.97491L17.5014 6.88503Z" fill="#767676"/>
</svg>