<svg viewBox="0 0 120 120" fill="none" xmlns="http://www.w3.org/2000/svg">
<path d="M97 65.5C97 59.5197 95.5697 53.6262 92.8286 48.3111C90.0874 42.9961 86.1148 38.4137 81.2423 34.9464C76.3698 31.4791 70.7387 29.2274 64.8189 28.3791C58.8991 27.5309 52.8623 28.1108 47.2122 30.0704C41.5621 32.03 36.4626 35.3124 32.3392 39.6439C28.2158 43.9753 25.1881 49.2301 23.5088 54.9697C21.8295 60.7094 21.5473 66.7674 22.6857 72.6384C23.8241 78.5093 26.3501 84.0228 30.0529 88.7189L32.8108 86.5442C29.4548 82.288 27.1654 77.2909 26.1336 71.9698C25.1019 66.6487 25.3577 61.1581 26.8797 55.956C28.4017 50.7539 31.1458 45.9913 34.883 42.0655C38.6202 38.1397 43.2421 35.1647 48.363 33.3886C53.4839 31.6126 58.9554 31.087 64.3207 31.8558C69.6861 32.6246 74.7898 34.6654 79.206 37.808C83.6221 40.9506 87.2226 45.1038 89.7071 49.921C92.1915 54.7383 93.4878 60.0798 93.4878 65.5H97Z" fill="#EC0000"/>
</svg>