<svg width="8" height="14" viewBox="0 0 8 14" fill="none" xmlns="http://www.w3.org/2000/svg">
<path d="M6.99566 14.0041C6.73024 14.0056 6.47513 13.9013 6.28669 13.7141L0.29537 7.71409C0.106332 7.52633 0 7.27073 0 7.00409C0 6.73745 0.106332 6.48186 0.29537 6.29409L6.28669 0.294092C6.67824 -0.0980305 7.31308 -0.0980305 7.70463 0.294092C8.09618 0.686214 8.09618 1.32197 7.70463 1.71409L2.4123 7.00409L7.70463 12.2941C7.89367 12.4819 8 12.7375 8 13.0041C8 13.2707 7.89367 13.5263 7.70463 13.7141C7.51618 13.9013 7.26108 14.0056 6.99566 14.0041Z" fill="#444444"/>
</svg>